<?xml version="1.0" ?><svg height="500" id="svg2" version="1.1" width="500" xmlns="http://www.w3.org/2000/svg" xmlns:cc="http://creativecommons.org/ns#" xmlns:dc="http://purl.org/dc/elements/1.1/" xmlns:inkscape="http://www.inkscape.org/namespaces/inkscape" xmlns:rdf="http://www.w3.org/1999/02/22-rdf-syntax-ns#" xmlns:sodipodi="http://sodipodi.sourceforge.net/DTD/sodipodi-0.dtd" xmlns:svg="http://www.w3.org/2000/svg"><defs id="defs4"/><g id="layer1" transform="translate(0,-552.36218)"><path d="M 50 0 C 22.3 0 -1.0018638e-016 22.3 0 50 L 0 450 C 0 477.7 22.3 500 50 500 L 450 500 C 477.7 500 500 477.7 500 450 L 500 50 C 500 22.3 477.7 -1.0018638e-016 450 0 L 50 0 z M 213.125 53.15625 L 269.375 53.15625 L 269.375 144.65625 L 360.875 144.65625 L 360.875 215.3125 L 269.375 215.3125 L 269.375 316.75 C 269.375 339.70348 269.11129 352.96459 271.53125 359.46875 C 273.95121 365.94074 280.00116 372.65609 286.59375 376.53125 C 295.37316 381.78925 305.35327 384.40625 316.625 384.40625 C 336.66006 384.40625 356.58827 377.89135 376.40625 364.875 L 376.40625 427.28125 C 359.52277 435.24059 344.20776 440.84751 330.5 444.03125 C 316.77615 447.21499 301.96602 448.84375 286.03125 448.84375 C 267.94182 448.84375 257.25965 446.54246 243.375 442 C 229.46623 437.40127 217.61296 430.87028 207.8125 422.46875 C 197.96382 414.00289 191.16975 405.01102 187.375 395.5 C 183.57219 385.96486 181.6875 372.15193 181.6875 354.0625 L 181.6875 215.3125 L 127.9375 215.3125 L 127.9375 159.25 C 143.47833 154.20908 161.46856 146.98509 172.53125 137.5625 C 183.64218 128.10776 192.56094 116.78789 199.25 103.5625 C 205.98731 90.36927 210.59248 73.55309 213.125 53.15625 z " id="rect2995" style="fill:#000000;fill-opacity:1;fill-rule:nonzero" transform="translate(0,552.36218)"/></g></svg>